<?xml version="1.0" standalone="no"?><!DOCTYPE svg PUBLIC "-//W3C//DTD SVG 1.1//EN" "http://www.w3.org/Graphics/SVG/1.1/DTD/svg11.dtd"><svg t="1750657523132" class="icon" viewBox="0 0 1024 1024" version="1.1" xmlns="http://www.w3.org/2000/svg" p-id="3136" xmlns:xlink="http://www.w3.org/1999/xlink" width="200" height="200"><path d="M193.70176 573.24a16 16 0 0 0-25.06 16.5C204.14176 746.56 344.60176 864 512.00176 864a350.62 350.62 0 0 0 104.82-16 16 16 0 0 0 1.58-30 2240 2240 0 0 1-218.96-111.22 2252.48 2252.48 0 0 1-205.74-133.54zM985.44176 679.02c-8.38-11.16-18.22-22.88-29.4-35.06a31.66 31.66 0 0 0-53.12 10.26c0 0.32-0.22 0.62-0.34 0.94a31.5 31.5 0 0 0 6.3 32.12c45.48 50 52.84 77.02 50.96 82.72-4 4.46-34.1 13.78-116.3-7.06q-17.66-4.48-38.64-10.92-13.52-4.16-27.58-8.98a353.52 353.52 0 0 0 39.08-54.5c0.34-0.58 0.7-1.16 1.04-1.76A350.78 350.78 0 0 0 864.00176 512a357.74 357.74 0 0 0-2-38c-19.14-176.34-168.8-314-350-314a350.74 350.74 0 0 0-212.8 71.78 354.8 354.8 0 0 0-91.66 103.68c-0.32 0.58-0.68 1.16-1.02 1.74a350.96 350.96 0 0 0-27.66 61.04q-11.18-9.74-21.58-19.34c-10.78-10-20.34-19.26-28.84-28-59.14-60.52-66.18-91.22-64.32-96.9 4-4.46 31.08-11.74 97.24 2.62A31.64 31.64 0 0 0 192.44176 246l0.72-0.88a31.48 31.48 0 0 0-17.34-50.86A474.76 474.76 0 0 0 128.26176 186c-61.44-7.06-101.66 5.04-119.56 36-6.48 11.16-12.7 30.18-5.44 57.2C14.00176 319.32 52.28176 368 106.46176 419c17.26 16.26 36.12 32.74 56.24 49.28 14.64 12 30 24.12 45.8 36.16q15.82 12 32.3 24T274.20176 552c50.82 35.22 104.52 69.04 157.18 99.38q28.68 16.52 57.28 32t56.74 29.62c43.8 22 86.7 41.84 127.72 58.86q26.38 10.96 51.62 20.32c23.78 8.84 46.74 16.62 68.62 23.18l2.2 0.66c51.46 15.32 94.84 23.38 128.96 24H928.00176c43.28 0 72.6-12.76 87.16-38 18.18-31.24 8.16-72.64-29.72-123z" p-id="3137"></path></svg>